<svg xmlns="http://www.w3.org/2000/svg" viewBox="0 0 100 100"><g id="vimeo"><path d="M92.67,14.61c-4.21-5.42-13.24-4.51-16-4.07-4.2.76-17.44,6.93-22.1,20.92L54,33.56h2.4c4.5-.45,6.92,0,8.11,1.2s1.5,3,1.21,6.17c-.3,3.46-2.11,7.36-3.91,10.67l-.16.3c-1.35,2.56-3.9,7.37-6.46,7.67-1,.15-2.11-.44-3.15-1.65-3.46-3.76-4.22-10.53-4.82-16.54-.29-2.1-.45-3.92-.75-5.71L46.21,34a96.46,96.46,0,0,0-2.42-11.42C42.58,18.82,39.89,14,36.12,13c-3.61-1.06-8.12.29-11,2.1A98.78,98.78,0,0,0,11.47,25.89C9.8,27.54,8,29.19,6.19,30.7A3.13,3.13,0,0,0,5,33.11a4.3,4.3,0,0,0,.59,1.79c.16.16.16.31.31.46a4.86,4.86,0,0,0,3.46,2.86,11.4,11.4,0,0,0,5.57-.76c2.85-.89,4.05-1.2,5.25.9a30.46,30.46,0,0,1,2.4,6.47,28.9,28.9,0,0,0,1.06,3.31c1.51,4.51,2.71,9.32,4.07,14.6l.44,1.94c2.11,8.88,5.11,21.06,12.78,24.37a8.23,8.23,0,0,0,3.76.75c3.77,0,7.82-1.81,10.09-3.16C63.64,81.23,70,73.71,74.61,67.54c12.64-17.29,19.1-36.39,20-41.36S94.77,17.32,92.67,14.61Z"/></g></svg>